<svg width="21" height="22" viewBox="0 0 21 22" fill="none" xmlns="http://www.w3.org/2000/svg">
<path d="M20.8801 15.8769C20.8801 18.7363 18.5654 21.0444 15.6979 21.0444C12.8305 21.0444 10.5158 18.7363 10.5158 15.8769C10.5158 13.0176 8.20104 10.7094 5.33356 10.7094C2.46608 10.7094 0.151367 8.40128 0.151367 5.54194C0.151367 2.6826 2.46608 0.374451 5.33356 0.374451C8.20104 0.374451 10.5158 2.6826 10.5158 5.54194C10.5158 8.40128 12.8305 10.7094 15.6979 10.7094C18.5654 10.7094 20.8801 13.0176 20.8801 15.8769Z" fill="#10239E"/>
<ellipse cx="16.0296" cy="5.30888" rx="4.5716" ry="4.55863" fill="#10239E"/>
<ellipse cx="5.09992" cy="16.2076" rx="4.5716" ry="4.55863" fill="#40A9FF"/>
</svg>
